<svg width="25" height="29" viewBox="0 0 25 29" fill="none" xmlns="http://www.w3.org/2000/svg">
<g clip-path="url(#clip0_814_573)">
<path fill-rule="evenodd" clip-rule="evenodd" d="M22.5077 6.43015C23.1128 6.62263 23.5171 7.14095 23.5171 7.72344V16.2443C23.5171 18.6259 22.5645 20.8992 20.8821 22.6605C20.0361 23.5474 18.9658 24.2381 17.8291 24.7967L12.9026 27.2147L7.96779 24.7954C6.82964 24.2368 5.75795 23.5474 4.91056 22.6592C3.22687 20.8979 2.27148 18.6233 2.27148 16.2393V7.72344C2.27148 7.14095 2.67579 6.62263 3.28087 6.43015L12.3945 3.52024C12.7185 3.41708 13.0715 3.41708 13.3941 3.52024L22.5077 6.43015Z" stroke="#C20023" stroke-width="1.44194" stroke-linecap="round" stroke-linejoin="round"/>
<path opacity="0.4" d="M9.29492 14.9772L11.9146 17.3587L17.3118 12.4547" stroke="#C20023" stroke-width="1.44194" stroke-linecap="round" stroke-linejoin="round"/>
</g>
<defs>
<clipPath id="clip0_814_573">
<rect width="24" height="26" fill="white" transform="translate(1 2.5)"/>
</clipPath>
</defs>
</svg>
