<svg width="60" height="54" viewBox="0 0 60 54" fill="none" xmlns="http://www.w3.org/2000/svg">
<path d="M27.1682 20.1949C27.801 19.6409 28.0506 18.7703 27.7208 17.9964C27.5158 17.5303 27.293 17.073 27.0434 16.6333L26.7672 16.1584C26.4998 15.7187 26.2057 15.2878 25.8937 14.8745C25.3857 14.2061 24.4945 13.9863 23.6924 14.2501L21.1791 15.0679C20.2254 14.2941 19.1292 13.6609 17.9527 13.23L17.4091 10.6797C17.2397 9.86182 16.5981 9.21106 15.7603 9.11432C15.1721 9.03518 14.5749 9 13.9689 9H13.9065C13.3004 9 12.7033 9.03518 12.1151 9.10553C11.2773 9.20226 10.6356 9.86182 10.4663 10.6709L9.92262 13.23C8.73727 13.6697 7.64995 14.2941 6.69632 15.0679L4.17409 14.2589C3.37197 13.9951 2.48073 14.2149 1.97272 14.8833C1.66078 15.2966 1.36667 15.7275 1.09038 16.1672L0.823011 16.6333C0.573463 17.073 0.350652 17.5303 0.145665 18.0052C-0.184096 18.7703 0.0654531 19.6409 0.698237 20.2037L2.6768 21.9449C2.57876 22.5341 2.52529 23.1497 2.52529 23.7741C2.52529 24.3985 2.57876 25.0141 2.6768 25.6121L0.698237 27.3533C0.0654531 27.9074 -0.184096 28.778 0.145665 29.5519C0.350652 30.0179 0.573463 30.4752 0.823011 30.9237L1.09038 31.381C1.35776 31.8295 1.65187 32.2516 1.97272 32.665C2.48073 33.3333 3.37197 33.5532 4.17409 33.2894L6.6874 32.4715C7.64104 33.2454 8.73727 33.8786 9.91371 34.3095L10.4574 36.8686C10.6267 37.6864 11.2684 38.3372 12.1062 38.4339C12.7033 38.5043 13.3094 38.5394 13.9243 38.5394C14.5393 38.5394 15.1453 38.5043 15.7425 38.4339C16.5802 38.3372 17.2219 37.6776 17.3913 36.8686L17.9349 34.3095C19.1203 33.8698 20.2076 33.2454 21.1612 32.4715L23.6745 33.2894C24.4767 33.5532 25.3679 33.3333 25.8759 32.665C26.1878 32.2516 26.482 31.8295 26.7493 31.381L27.0256 30.9061C27.2752 30.4664 27.498 30.0091 27.703 29.5431C28.0327 28.778 27.7832 27.9074 27.1504 27.3445L25.1718 25.6033C25.2699 25.0053 25.3233 24.3897 25.3233 23.7653C25.3233 23.1409 25.2699 22.5254 25.1718 21.9274L27.1504 20.1861L27.1682 20.1949ZM9.65525 23.7741C9.65525 22.6546 10.106 21.5809 10.9082 20.7893C11.7105 19.9977 12.7986 19.5529 13.9332 19.5529C15.0678 19.5529 16.1559 19.9977 16.9582 20.7893C17.7605 21.5809 18.2112 22.6546 18.2112 23.7741C18.2112 24.8936 17.7605 25.9673 16.9582 26.7589C16.1559 27.5506 15.0678 27.9953 13.9332 27.9953C12.7986 27.9953 11.7105 27.5506 10.9082 26.7589C10.106 25.9673 9.65525 24.8936 9.65525 23.7741ZM44.6544 52.311C45.2159 52.9354 46.0983 53.1817 46.8826 52.8563C47.3549 52.654 47.8184 52.4342 48.264 52.1879L48.7453 51.9153C49.1909 51.6515 49.6276 51.3613 50.0465 51.0535C50.7238 50.5522 50.9466 49.6728 50.6793 48.8813L49.8504 46.4014C50.6347 45.4604 51.2764 44.3787 51.7131 43.2179L54.3066 42.6815C55.1355 42.5144 55.795 41.8812 55.8931 41.0546C55.9643 40.4654 56 39.8674 56 39.2606C56 38.6538 55.9643 38.0558 55.8931 37.4666C55.795 36.6399 55.1266 36.0067 54.3066 35.8397L51.7131 35.2944C51.2675 34.1248 50.6347 33.0519 49.8504 32.1109L50.6793 29.631C50.9466 28.8395 50.7238 27.9601 50.0465 27.4589C49.6276 27.1511 49.1909 26.8609 48.7453 26.5882L48.2729 26.3244C47.8273 26.0782 47.3638 25.8583 46.8826 25.6561C46.1072 25.3307 45.2248 25.5769 44.6544 26.2013L42.8898 28.1536C42.2837 28.0569 41.6599 28.0041 41.0271 28.0041C40.3943 28.0041 39.7704 28.0569 39.1644 28.1536L37.3997 26.2013C36.8382 25.5769 35.9559 25.3307 35.1716 25.6561C34.6992 25.8583 34.2358 26.0782 33.7813 26.3244L33.3178 26.5882C32.8633 26.8521 32.4355 27.1423 32.0166 27.4589C31.3392 27.9601 31.1164 28.8395 31.3838 29.631L32.2127 32.1109C31.4284 33.0519 30.7867 34.1336 30.35 35.2944L27.7564 35.8221C26.9276 35.9891 26.2681 36.6223 26.17 37.449C26.0987 38.0382 26.0631 38.6362 26.0631 39.243C26.0631 39.8498 26.0987 40.4478 26.17 41.037C26.2681 41.8636 26.9365 42.4968 27.7564 42.6639L30.35 43.2003C30.7956 44.3699 31.4284 45.4428 32.2127 46.3838L31.3838 48.8637C31.1164 49.6552 31.3392 50.5346 32.0166 51.0359C32.4355 51.3437 32.8633 51.6339 33.3178 51.8977L33.7991 52.1703C34.2447 52.4166 34.7082 52.6364 35.1805 52.8387C35.9559 53.1641 36.8382 52.9178 37.4086 52.2934L39.1733 50.3412C39.7793 50.4379 40.4032 50.4907 41.036 50.4907C41.6688 50.4907 42.2926 50.4379 42.8987 50.3412L44.6634 52.2934L44.6544 52.311ZM41.0271 35.0306C41.5889 35.0306 42.1452 35.1398 42.6642 35.3519C43.1832 35.564 43.6548 35.875 44.0521 36.2669C44.4493 36.6589 44.7644 37.1243 44.9794 37.6364C45.1944 38.1485 45.3051 38.6974 45.3051 39.2518C45.3051 39.8061 45.1944 40.355 44.9794 40.8671C44.7644 41.3793 44.4493 41.8446 44.0521 42.2366C43.6548 42.6286 43.1832 42.9395 42.6642 43.1516C42.1452 43.3638 41.5889 43.4729 41.0271 43.4729C40.4653 43.4729 39.909 43.3638 39.39 43.1516C38.8709 42.9395 38.3993 42.6286 38.0021 42.2366C37.6048 41.8446 37.2897 41.3793 37.0747 40.8671C36.8598 40.355 36.7491 39.8061 36.7491 39.2518C36.7491 38.6974 36.8598 38.1485 37.0747 37.6364C37.2897 37.1243 37.6048 36.6589 38.0021 36.2669C38.3993 35.875 38.8709 35.564 39.39 35.3519C39.909 35.1398 40.4653 35.0306 41.0271 35.0306Z" fill="#E94158" fill-opacity="0.5"/>
</svg>
