<svg width="24" height="26" viewBox="0 0 24 26" fill="none" xmlns="http://www.w3.org/2000/svg">
<mask id="path-1-outside-1_739_1779" maskUnits="userSpaceOnUse" x="-0.688743" y="-0.527296" width="24.7948" height="26.1002" fill="black">
<rect fill="white" x="-0.688743" y="-0.527296" width="24.7948" height="26.1002"/>
<path d="M1.37749 14.6978C0.616721 13.897 0.616722 12.5986 1.37749 11.7978L10.2578 2.44998C11.0185 1.64916 12.252 1.64917 13.0127 2.44998L21.893 11.7978C22.6538 12.5986 22.6538 13.897 21.893 14.6978L13.0127 24.0456C12.252 24.8464 11.0185 24.8464 10.2578 24.0456L1.37749 14.6978Z"/>
</mask>
<path d="M1.37749 14.6978C0.616721 13.897 0.616722 12.5986 1.37749 11.7978L10.2578 2.44998C11.0185 1.64916 12.252 1.64917 13.0127 2.44998L21.893 11.7978C22.6538 12.5986 22.6538 13.897 21.893 14.6978L13.0127 24.0456C12.252 24.8464 11.0185 24.8464 10.2578 24.0456L1.37749 14.6978Z" fill="white"/>
<path d="M1.37749 14.6978C0.236339 13.4966 0.236339 11.549 1.37749 10.3478L9.56901 1.72498C10.7102 0.523751 12.5603 0.523751 13.7015 1.72498L12.324 3.17499C11.9436 2.77458 11.3269 2.77458 10.9465 3.17499L2.06623 12.5228C1.30547 13.3236 0.997104 14.2974 1.37749 14.6978ZM23.2705 13.2478L11.6352 25.4956L23.2705 13.2478ZM11.6352 25.4956L0 13.2478L11.6352 25.4956ZM9.56901 1.72498C10.7102 0.523751 12.5603 0.523751 13.7015 1.72498L21.893 10.3478C23.0341 11.549 23.0341 13.4966 21.893 14.6978C22.2734 14.2974 21.965 13.3236 21.2043 12.5228L12.324 3.17499C11.9436 2.77458 11.3269 2.77458 10.9465 3.17499L9.56901 1.72498Z" fill="#DADCDD" mask="url(#path-1-outside-1_739_1779)"/>
</svg>
