<svg width="62" height="56" viewBox="0 0 62 56" fill="none" xmlns="http://www.w3.org/2000/svg">
<g clip-path="url(#clip0_729_1383)">
<g clip-path="url(#clip1_729_1383)">
<path fill-rule="evenodd" clip-rule="evenodd" d="M55.2701 11.1996L59.8694 42.2038C60.3833 45.6679 59.3658 49.1755 57.0778 51.8273C54.7897 54.4791 51.4684 56 47.9654 56H44.4719C43.2635 56 42.2839 55.0207 42.2839 53.8125C42.2839 52.6043 43.2635 51.625 44.4719 51.625H47.9654C50.1945 51.625 52.3081 50.6571 53.7642 48.9697C55.2202 47.2823 55.8677 45.05 55.5407 42.8457L50.9414 11.8414C50.31 7.58483 46.5881 4.375 42.2839 4.375L21.7161 4.375C17.4119 4.375 13.69 7.58483 13.0586 11.8414L8.45933 42.8456C8.13221 45.05 8.77977 47.2823 10.2358 48.9697C11.6918 50.6571 13.8055 51.625 16.0346 51.625H19.7469C20.9553 51.625 21.9349 52.6043 21.9349 53.8125C21.9349 55.0207 20.9553 56 19.7469 56H16.0346C12.5316 56 9.21027 54.4791 6.92232 51.8272C4.63427 49.1755 3.61671 45.6679 4.13058 42.2037L8.72988 11.1997C9.19145 8.08752 10.758 5.2418 13.1409 3.18675C15.5237 1.13181 18.5691 0 21.7161 0L42.2839 0C45.4309 0 48.4763 1.13181 50.8591 3.18664C53.2419 5.24169 54.8084 8.08741 55.2701 11.1996Z" fill="#E94158" fill-opacity="0.5"/>
<path d="M27.3125 22.375C21.6172 22.375 17 26.9922 17 32.6875C17 38.3828 21.6172 43 27.3125 43C33.0078 43 37.625 38.3828 37.625 32.6875C37.625 31.5918 37.4551 30.5312 37.1387 29.541L46.5898 20.0898C46.8535 19.8262 47 19.4687 47 19.0937L47 14.4062C47 13.627 46.373 13 45.5937 13L40.9062 13C40.127 13 39.5 13.627 39.5 14.4062L39.5 16.75L37.1562 16.75C36.377 16.75 35.75 17.377 35.75 18.1562L35.75 20.5L33.4062 20.5C33.0312 20.5 32.6738 20.6465 32.4102 20.9102L30.459 22.8613C29.4688 22.5449 28.4082 22.375 27.3125 22.375ZM24.9688 37.375C24.3472 37.375 23.751 37.1281 23.3115 36.6885C22.8719 36.249 22.625 35.6529 22.625 35.0313C22.625 34.4097 22.8719 33.8135 23.3115 33.374C23.751 32.9344 24.3471 32.6875 24.9688 32.6875C25.5904 32.6875 26.1865 32.9344 26.626 33.374C27.0656 33.8135 27.3125 34.4096 27.3125 35.0313C27.3125 35.6529 27.0656 36.249 26.626 36.6885C26.1865 37.1281 25.5904 37.375 24.9688 37.375Z" fill="#E94158"/>
<circle cx="32.5" cy="52" r="3" fill="#E94158" fill-opacity="0.5"/>
</g>
</g>
<defs>
<clipPath id="clip0_729_1383">
<rect width="61" height="56" fill="white" transform="translate(0.5)"/>
</clipPath>
<clipPath id="clip1_729_1383">
<rect width="56" height="56" fill="white" transform="translate(4)"/>
</clipPath>
</defs>
</svg>
