<svg width="24" height="25" viewBox="0 0 24 25" fill="none" xmlns="http://www.w3.org/2000/svg">
<path d="M7.98899 3.99956C7.85816 4.13351 7.78491 4.31332 7.78491 4.50056C7.78491 4.6878 7.85816 4.86762 7.98899 5.00156L15.2985 12.5001L7.98899 19.9971C7.85816 20.131 7.78491 20.3108 7.78491 20.4981C7.78491 20.6853 7.85816 20.8651 7.98899 20.9991C8.05259 21.0644 8.12862 21.1163 8.21261 21.1517C8.29659 21.1872 8.38683 21.2054 8.47799 21.2054C8.56915 21.2054 8.65939 21.1872 8.74338 21.1517C8.82736 21.1163 8.9034 21.0644 8.96699 20.9991L16.74 13.0236C16.8765 12.8835 16.9529 12.6957 16.9529 12.5001C16.9529 12.3045 16.8765 12.1166 16.74 11.9766L8.96699 4.00106C8.9034 3.93575 8.82736 3.88383 8.74338 3.84839C8.65939 3.81294 8.56915 3.79468 8.47799 3.79468C8.38683 3.79468 8.29659 3.81294 8.21261 3.84839C8.12862 3.88383 8.05259 3.93575 7.98899 4.00106V3.99956Z" fill="black"/>
</svg>
