<svg width="25" height="28" viewBox="0 0 25 28" fill="none" xmlns="http://www.w3.org/2000/svg">
<g clip-path="url(#clip0_814_544)">
<path fill-rule="evenodd" clip-rule="evenodd" d="M17.7348 26.2H7.09498C3.18672 26.2 0.188429 24.8825 1.04008 19.5797L2.03173 12.3932C2.55672 9.74721 4.36503 8.73456 5.95167 8.73456H18.9248C20.5348 8.73456 22.2381 9.82343 22.8448 12.3932L23.8364 19.5797C24.5597 24.2836 21.6431 26.2 17.7348 26.2Z" stroke="#C20023" stroke-width="1.339" stroke-linecap="round" stroke-linejoin="round"/>
<path opacity="0.4" d="M17.9095 8.47282C17.9095 5.63436 15.4441 3.3333 12.403 3.3333C10.9385 3.32756 9.53182 3.86647 8.49413 4.83094C7.45639 5.79541 6.87305 7.10596 6.87305 8.47282" stroke="#C20023" stroke-width="1.339" stroke-linecap="round" stroke-linejoin="round"/>
<path d="M16.1872 13.8303H16.1289" stroke="#C20023" stroke-width="1.339" stroke-linecap="round" stroke-linejoin="round"/>
<path d="M8.75168 13.8303H8.69336" stroke="#C20023" stroke-width="1.339" stroke-linecap="round" stroke-linejoin="round"/>
</g>
<defs>
<clipPath id="clip0_814_544">
<rect width="25" height="25" fill="white" transform="translate(0 2.5)"/>
</clipPath>
</defs>
</svg>
