<svg width="57" height="57" viewBox="0 0 57 57" fill="none" xmlns="http://www.w3.org/2000/svg">
<path d="M47.0147 34.7877L48.33 47.1466C48.4402 48.2224 50.1128 48.3183 49.994 47.2215L48.6699 34.8534C48.5598 33.7776 46.8871 33.6817 47.0061 34.7785L47.0147 34.7877Z" fill="#10100E"/>
<path d="M30.5544 27.3046L23.2011 36.5268C22.5123 37.393 23.7587 38.5615 24.4474 37.6954L31.8004 28.4688C32.4853 27.6072 31.2431 26.4384 30.5503 27.3048L30.5544 27.3046Z" fill="#10100E"/>
<path d="M21.7564 7.03688L9.53808 10.3937C8.45314 10.6919 9.17379 12.2585 10.2436 11.9631L22.4619 8.60629C23.5468 8.30814 22.8262 6.74154 21.7564 7.03688Z" fill="#10100E"/>
</svg>
