<svg width="54" height="54" viewBox="0 0 54 54" fill="none" xmlns="http://www.w3.org/2000/svg">
<g clip-path="url(#clip0_729_1366)">
<path fill-rule="evenodd" clip-rule="evenodd" d="M0 41.3419C0 48.3216 5.67759 54 12.6562 54H41.3438C48.3224 54 54 48.3216 54 41.3419V23.592C54 19.6689 52.1381 15.9063 49.0191 13.5273L34.6754 2.58549C30.1563 -0.86183 23.8438 -0.86183 19.3247 2.58549L4.98097 13.5273C1.86195 15.9064 0 19.669 0 23.592V41.3419ZM21.8831 5.94031C23.3895 4.79127 25.1948 4.2167 27 4.2167C28.8052 4.2167 30.6105 4.79127 32.1169 5.94041L46.4607 16.8822C48.5399 18.4683 49.7812 20.9766 49.7812 23.592V41.3419C49.7812 45.995 45.9962 49.7806 41.3438 49.7806H12.6562C8.00381 49.7806 4.21875 45.995 4.21875 41.3419V23.592C4.21875 20.9766 5.46012 18.4682 7.53933 16.8821L21.8831 5.94031ZM27 29.3167C22.9291 29.3167 19.6172 26.0043 19.6172 21.9328C19.6172 17.8613 22.9291 14.549 27 14.549C31.0709 14.549 34.3828 17.8613 34.3828 21.9328C34.3828 26.0043 31.0709 29.3167 27 29.3167ZM23.8359 21.9328C23.8359 20.188 25.2553 18.7683 27 18.7683C28.7447 18.7683 30.1641 20.188 30.1641 21.9328C30.1641 23.6777 28.7447 25.0973 27 25.0973C25.2553 25.0973 23.8359 23.6777 23.8359 21.9328Z" fill="#E94158" fill-opacity="0.5"/>
<path d="M37.472 44.9999C36.297 44.9999 35.3447 44.0752 35.3447 42.9343C35.3447 39.4035 32.3686 36.5311 28.7104 36.5311H27.088C23.4298 36.5311 20.4537 39.4035 20.4537 42.9343C20.4537 44.0752 19.5014 44.9999 18.3265 44.9999C17.1516 44.9999 16.1992 44.0752 16.1992 42.9343C16.1992 37.1256 21.084 32.3999 27.088 32.3999H28.7104C34.7144 32.3999 39.5992 37.1256 39.5992 42.9343C39.5992 44.075 38.6468 44.9999 37.472 44.9999Z" fill="#E94158"/>
</g>
<defs>
<clipPath id="clip0_729_1366">
<rect width="54" height="54" fill="white"/>
</clipPath>
</defs>
</svg>
