<svg width="54" height="54" viewBox="0 0 54 54" fill="none" xmlns="http://www.w3.org/2000/svg">
<g clip-path="url(#clip0_729_1413)">
<path fill-rule="evenodd" clip-rule="evenodd" d="M4.94097 36.047L4.64789 35.9241L9.51881 24.1677C10.5713 21.6341 13.0043 20 15.7164 20H24.0141V23.697H15.7164C14.5072 23.697 13.3764 24.4585 12.9064 25.5947L9.01739 34.982C9.06692 34.9812 9.11654 34.9808 9.16626 34.9808H34.4651V38.7654H9.16626C6.13284 38.7654 3.6665 41.3112 3.6665 44.4423V46.9654C3.6665 48.7038 5.03778 50.1192 6.72192 50.1192H48.2756C49.9598 50.1192 51.3311 48.7038 51.3311 46.9654V44.4423C51.3311 43.0218 50.8177 41.6694 49.8889 40.6299L52.5801 38.0589C54.1396 39.7973 55 42.0656 55 44.4398V46.8077V46.9629V55.4465C55 58.5096 52.5683 61 49.5775 61C46.5866 61 44.1549 58.5096 44.1549 55.4465V53.9038H10.8451V55.4465C10.8451 58.5096 8.41337 61 5.42254 61C2.43171 61 0 58.5096 0 55.4465V46.9654V46.8077V44.4423C0 40.7966 2.00719 37.6264 4.94097 36.047ZM47.77 55.4465V53.9038H48.2756C49.3969 53.9038 50.4547 53.6194 51.385 53.1166V55.4465C51.385 56.4683 50.5752 57.2977 49.5775 57.2977C48.5797 57.2977 47.77 56.4683 47.77 55.4465ZM7.23005 53.9038H6.72192C5.6016 53.9038 4.54464 53.6199 3.61502 53.1179V55.4465C3.61502 56.4683 4.42479 57.2977 5.42254 57.2977C6.42028 57.2977 7.23005 56.4683 7.23005 55.4465V53.9038ZM9.29577 42.0769H16.2676V46.0192H9.29577V42.0769ZM44.9296 42.0769H37.9577V46.0192H44.9296V42.0769Z" fill="#030E15"/>
<path d="M41.7895 10H38.3447C37.0967 10 35.9822 10.7481 35.5678 11.8637L30.1428 26.415C30.0461 26.6731 30 26.94 30 27.2113C30 28.5281 31.1283 29.6 32.5145 29.6H41.7895V26.8C41.7895 26.0256 42.448 25.4 43.2632 25.4C44.0783 25.4 44.7368 26.0256 44.7368 26.8V29.6H46.2105V24C46.2105 22.9631 46.8046 22.0575 47.6842 21.5763V20.5C47.6842 17.9494 49.7382 15.8537 52.3586 15.6219L50.9586 11.8637C50.5395 10.7481 49.4296 10 48.1816 10H44.7368V12.8C44.7368 13.5744 44.0783 14.2 43.2632 14.2C42.448 14.2 41.7895 13.5744 41.7895 12.8V10ZM44.7368 18.4V21.2C44.7368 21.9744 44.0783 22.6 43.2632 22.6C42.448 22.6 41.7895 21.9744 41.7895 21.2V18.4C41.7895 17.6256 42.448 17 43.2632 17C44.0783 17 44.7368 17.6256 44.7368 18.4ZM52.8421 19.1C53.6572 19.1 54.3158 19.7256 54.3158 20.5V22.6H51.3684V20.5C51.3684 19.7256 52.027 19.1 52.8421 19.1ZM49.1579 20.5V22.6C48.3428 22.6 47.6842 23.2256 47.6842 24V29.6C47.6842 30.3744 48.3428 31 49.1579 31H56.5263C57.3414 31 58 30.3744 58 29.6V24C58 23.2256 57.3414 22.6 56.5263 22.6V20.5C56.5263 18.5662 54.8776 17 52.8421 17C50.8066 17 49.1579 18.5662 49.1579 20.5Z" fill="#E94158"/>
</g>
<defs>
<clipPath id="clip0_729_1413">
<rect width="54" height="54" fill="white"/>
</clipPath>
</defs>
</svg>
