<svg width="186" height="111" viewBox="0 0 186 111" fill="none" xmlns="http://www.w3.org/2000/svg">
<mask id="mask0_814_515" style="mask-type:alpha" maskUnits="userSpaceOnUse" x="0" y="0" width="186" height="111">
<path d="M0.00195313 0.189941L0.00195312 110.19L185.002 110.19V0.189941L0.00195313 0.189941Z" fill="white"/>
</mask>
<g mask="url(#mask0_814_515)">
<path d="M6.00195 101.69C6.00195 100.862 5.33038 100.19 4.50195 100.19C3.67353 100.19 3.00195 100.862 3.00195 101.69C3.00195 102.518 3.67353 103.19 4.50195 103.19C5.33038 103.19 6.00195 102.518 6.00195 101.69Z" fill="#2E2E2E"/>
<path d="M6.00195 63.6899C6.00195 62.8615 5.33038 62.1899 4.50195 62.1899C3.67353 62.1899 3.00195 62.8615 3.00195 63.6899C3.00195 64.5184 3.67353 65.1899 4.50195 65.1899C5.33038 65.1899 6.00195 64.5184 6.00195 63.6899Z" fill="#2E2E2E"/>
<path d="M6.00195 25.6899C6.00195 24.8615 5.33038 24.1899 4.50195 24.1899C3.67353 24.1899 3.00195 24.8615 3.00195 25.6899C3.00195 26.5184 3.67353 27.1899 4.50195 27.1899C5.33038 27.1899 6.00195 26.5184 6.00195 25.6899Z" fill="#2E2E2E"/>
<path d="M44.002 101.69C44.002 100.862 43.3304 100.19 42.502 100.19C41.6735 100.19 41.002 100.862 41.002 101.69C41.002 102.518 41.6735 103.19 42.502 103.19C43.3304 103.19 44.002 102.518 44.002 101.69Z" fill="#2E2E2E"/>
<path d="M44.002 63.6899C44.002 62.8615 43.3304 62.1899 42.502 62.1899C41.6735 62.1899 41.002 62.8615 41.002 63.6899C41.002 64.5184 41.6735 65.1899 42.502 65.1899C43.3304 65.1899 44.002 64.5184 44.002 63.6899Z" fill="#2E2E2E"/>
<path d="M44.002 25.6899C44.002 24.8615 43.3304 24.1899 42.502 24.1899C41.6735 24.1899 41.002 24.8615 41.002 25.6899C41.002 26.5184 41.6735 27.1899 42.502 27.1899C43.3304 27.1899 44.002 26.5184 44.002 25.6899Z" fill="#2E2E2E"/>
<path d="M82.002 101.69C82.002 100.862 81.3304 100.19 80.502 100.19C79.6735 100.19 79.002 100.862 79.002 101.69C79.002 102.518 79.6735 103.19 80.502 103.19C81.3304 103.19 82.002 102.518 82.002 101.69Z" fill="#2E2E2E"/>
<path d="M82.002 63.6899C82.002 62.8615 81.3304 62.1899 80.502 62.1899C79.6735 62.1899 79.002 62.8615 79.002 63.6899C79.002 64.5184 79.6735 65.1899 80.502 65.1899C81.3304 65.1899 82.002 64.5184 82.002 63.6899Z" fill="#2E2E2E"/>
<path d="M82.002 25.6899C82.002 24.8615 81.3304 24.1899 80.502 24.1899C79.6735 24.1899 79.002 24.8615 79.002 25.6899C79.002 26.5184 79.6735 27.1899 80.502 27.1899C81.3304 27.1899 82.002 26.5184 82.002 25.6899Z" fill="#2E2E2E"/>
<path d="M120.002 101.69C120.002 100.862 119.33 100.19 118.502 100.19C117.674 100.19 117.002 100.862 117.002 101.69C117.002 102.518 117.674 103.19 118.502 103.19C119.33 103.19 120.002 102.518 120.002 101.69Z" fill="#2E2E2E"/>
<path d="M120.002 63.6899C120.002 62.8615 119.33 62.1899 118.502 62.1899C117.674 62.1899 117.002 62.8615 117.002 63.6899C117.002 64.5184 117.674 65.1899 118.502 65.1899C119.33 65.1899 120.002 64.5184 120.002 63.6899Z" fill="#2E2E2E"/>
<path d="M120.002 25.6899C120.002 24.8615 119.33 24.1899 118.502 24.1899C117.674 24.1899 117.002 24.8615 117.002 25.6899C117.002 26.5184 117.674 27.1899 118.502 27.1899C119.33 27.1899 120.002 26.5184 120.002 25.6899Z" fill="#2E2E2E"/>
<path d="M158.002 101.69C158.002 100.862 157.33 100.19 156.502 100.19C155.674 100.19 155.002 100.862 155.002 101.69C155.002 102.518 155.674 103.19 156.502 103.19C157.33 103.19 158.002 102.518 158.002 101.69Z" fill="#2E2E2E"/>
<path d="M158.002 63.6899C158.002 62.8615 157.33 62.1899 156.502 62.1899C155.674 62.1899 155.002 62.8615 155.002 63.6899C155.002 64.5184 155.674 65.1899 156.502 65.1899C157.33 65.1899 158.002 64.5184 158.002 63.6899Z" fill="#2E2E2E"/>
<path d="M158.002 25.6899C158.002 24.8615 157.33 24.1899 156.502 24.1899C155.674 24.1899 155.002 24.8615 155.002 25.6899C155.002 26.5184 155.674 27.1899 156.502 27.1899C157.33 27.1899 158.002 26.5184 158.002 25.6899Z" fill="#2E2E2E"/>
</g>
</svg>
