<svg width="111" height="122" viewBox="0 0 111 122" fill="none" xmlns="http://www.w3.org/2000/svg">
<mask id="mask0_814_474" style="mask-type:alpha" maskUnits="userSpaceOnUse" x="0" y="0" width="111" height="122">
<path d="M0.00195312 122L110.002 122L110.002 0L0.00195312 0L0.00195312 122Z" fill="white"/>
</mask>
<g mask="url(#mask0_814_474)">
<path d="M97.502 111C96.6735 111 96.002 111.672 96.002 112.5C96.002 113.328 96.6735 114 97.502 114C98.3304 114 99.002 113.328 99.002 112.5C99.002 111.672 98.3304 111 97.502 111Z" fill="black"/>
<path d="M59.502 111C58.6735 111 58.002 111.672 58.002 112.5C58.002 113.328 58.6735 114 59.502 114C60.3304 114 61.002 113.328 61.002 112.5C61.002 111.672 60.3304 111 59.502 111Z" fill="black"/>
<path d="M21.502 111C20.6735 111 20.002 111.672 20.002 112.5C20.002 113.328 20.6735 114 21.502 114C22.3304 114 23.002 113.328 23.002 112.5C23.002 111.672 22.3304 111 21.502 111Z" fill="black"/>
<path d="M97.502 73C96.6735 73 96.002 73.6716 96.002 74.5C96.002 75.3284 96.6735 76 97.502 76C98.3304 76 99.002 75.3284 99.002 74.5C99.002 73.6716 98.3304 73 97.502 73Z" fill="black"/>
<path d="M59.502 73C58.6735 73 58.002 73.6716 58.002 74.5C58.002 75.3284 58.6735 76 59.502 76C60.3304 76 61.002 75.3284 61.002 74.5C61.002 73.6716 60.3304 73 59.502 73Z" fill="black"/>
<path d="M21.502 73C20.6735 73 20.002 73.6716 20.002 74.5C20.002 75.3284 20.6735 76 21.502 76C22.3304 76 23.002 75.3284 23.002 74.5C23.002 73.6716 22.3304 73 21.502 73Z" fill="black"/>
<path d="M97.502 35C96.6735 35 96.002 35.6716 96.002 36.5C96.002 37.3284 96.6735 38 97.502 38C98.3304 38 99.002 37.3284 99.002 36.5C99.002 35.6716 98.3304 35 97.502 35Z" fill="black"/>
<path d="M59.502 35C58.6735 35 58.002 35.6716 58.002 36.5C58.002 37.3284 58.6735 38 59.502 38C60.3304 38 61.002 37.3284 61.002 36.5C61.002 35.6716 60.3304 35 59.502 35Z" fill="black"/>
<path d="M21.502 35C20.6735 35 20.002 35.6716 20.002 36.5C20.002 37.3284 20.6735 38 21.502 38C22.3304 38 23.002 37.3284 23.002 36.5C23.002 35.6716 22.3304 35 21.502 35Z" fill="black"/>
</g>
</svg>
