<svg width="185" height="177" viewBox="0 0 185 177" fill="none" xmlns="http://www.w3.org/2000/svg">
<g clip-path="url(#clip0_775_857)">
<mask id="mask0_775_857" style="mask-type:alpha" maskUnits="userSpaceOnUse" x="0" y="0" width="185" height="177">
<path d="M0 0L0 177H185V0H0Z" fill="white"/>
</mask>
<g mask="url(#mask0_775_857)">
<path d="M6 168.5C6 167.672 5.32843 167 4.5 167C3.67157 167 3 167.672 3 168.5C3 169.328 3.67157 170 4.5 170C5.32843 170 6 169.328 6 168.5Z" fill="#2E2E2E"/>
<path d="M6 130.5C6 129.672 5.32843 129 4.5 129C3.67157 129 3 129.672 3 130.5C3 131.328 3.67157 132 4.5 132C5.32843 132 6 131.328 6 130.5Z" fill="#2E2E2E"/>
<path d="M6 92.5C6 91.6716 5.32843 91 4.5 91C3.67157 91 3 91.6716 3 92.5C3 93.3284 3.67157 94 4.5 94C5.32843 94 6 93.3284 6 92.5Z" fill="#2E2E2E"/>
<path d="M6 54.5C6 53.6716 5.32843 53 4.5 53C3.67157 53 3 53.6716 3 54.5C3 55.3284 3.67157 56 4.5 56C5.32843 56 6 55.3284 6 54.5Z" fill="#2E2E2E"/>
<path d="M6 16.5C6 15.6716 5.32843 15 4.5 15C3.67157 15 3 15.6716 3 16.5C3 17.3284 3.67157 18 4.5 18C5.32843 18 6 17.3284 6 16.5Z" fill="#2E2E2E"/>
<path d="M44 168.5C44 167.672 43.3284 167 42.5 167C41.6716 167 41 167.672 41 168.5C41 169.328 41.6716 170 42.5 170C43.3284 170 44 169.328 44 168.5Z" fill="#2E2E2E"/>
<path d="M44 130.5C44 129.672 43.3284 129 42.5 129C41.6716 129 41 129.672 41 130.5C41 131.328 41.6716 132 42.5 132C43.3284 132 44 131.328 44 130.5Z" fill="#2E2E2E"/>
<path d="M44 92.5C44 91.6716 43.3284 91 42.5 91C41.6716 91 41 91.6716 41 92.5C41 93.3284 41.6716 94 42.5 94C43.3284 94 44 93.3284 44 92.5Z" fill="#2E2E2E"/>
<path d="M44 54.5C44 53.6716 43.3284 53 42.5 53C41.6716 53 41 53.6716 41 54.5C41 55.3284 41.6716 56 42.5 56C43.3284 56 44 55.3284 44 54.5Z" fill="#2E2E2E"/>
<path d="M44 16.5C44 15.6716 43.3284 15 42.5 15C41.6716 15 41 15.6716 41 16.5C41 17.3284 41.6716 18 42.5 18C43.3284 18 44 17.3284 44 16.5Z" fill="#2E2E2E"/>
<path d="M82 168.5C82 167.672 81.3284 167 80.5 167C79.6716 167 79 167.672 79 168.5C79 169.328 79.6716 170 80.5 170C81.3284 170 82 169.328 82 168.5Z" fill="#2E2E2E"/>
<path d="M82 130.5C82 129.672 81.3284 129 80.5 129C79.6716 129 79 129.672 79 130.5C79 131.328 79.6716 132 80.5 132C81.3284 132 82 131.328 82 130.5Z" fill="#2E2E2E"/>
<path d="M82 92.5C82 91.6716 81.3284 91 80.5 91C79.6716 91 79 91.6716 79 92.5C79 93.3284 79.6716 94 80.5 94C81.3284 94 82 93.3284 82 92.5Z" fill="#2E2E2E"/>
<path d="M82 54.5C82 53.6716 81.3284 53 80.5 53C79.6716 53 79 53.6716 79 54.5C79 55.3284 79.6716 56 80.5 56C81.3284 56 82 55.3284 82 54.5Z" fill="#2E2E2E"/>
<path d="M82 16.5C82 15.6716 81.3284 15 80.5 15C79.6716 15 79 15.6716 79 16.5C79 17.3284 79.6716 18 80.5 18C81.3284 18 82 17.3284 82 16.5Z" fill="#2E2E2E"/>
<path d="M120 168.5C120 167.672 119.328 167 118.5 167C117.672 167 117 167.672 117 168.5C117 169.328 117.672 170 118.5 170C119.328 170 120 169.328 120 168.5Z" fill="#2E2E2E"/>
<path d="M120 130.5C120 129.672 119.328 129 118.5 129C117.672 129 117 129.672 117 130.5C117 131.328 117.672 132 118.5 132C119.328 132 120 131.328 120 130.5Z" fill="#2E2E2E"/>
<path d="M120 92.5C120 91.6716 119.328 91 118.5 91C117.672 91 117 91.6716 117 92.5C117 93.3284 117.672 94 118.5 94C119.328 94 120 93.3284 120 92.5Z" fill="#2E2E2E"/>
<path d="M120 54.5C120 53.6716 119.328 53 118.5 53C117.672 53 117 53.6716 117 54.5C117 55.3284 117.672 56 118.5 56C119.328 56 120 55.3284 120 54.5Z" fill="#2E2E2E"/>
<path d="M120 16.5C120 15.6716 119.328 15 118.5 15C117.672 15 117 15.6716 117 16.5C117 17.3284 117.672 18 118.5 18C119.328 18 120 17.3284 120 16.5Z" fill="#2E2E2E"/>
<path d="M158 168.5C158 167.672 157.328 167 156.5 167C155.672 167 155 167.672 155 168.5C155 169.328 155.672 170 156.5 170C157.328 170 158 169.328 158 168.5Z" fill="#2E2E2E"/>
<path d="M158 130.5C158 129.672 157.328 129 156.5 129C155.672 129 155 129.672 155 130.5C155 131.328 155.672 132 156.5 132C157.328 132 158 131.328 158 130.5Z" fill="#2E2E2E"/>
<path d="M158 92.5C158 91.6716 157.328 91 156.5 91C155.672 91 155 91.6716 155 92.5C155 93.3284 155.672 94 156.5 94C157.328 94 158 93.3284 158 92.5Z" fill="#2E2E2E"/>
<path d="M158 54.5C158 53.6716 157.328 53 156.5 53C155.672 53 155 53.6716 155 54.5C155 55.3284 155.672 56 156.5 56C157.328 56 158 55.3284 158 54.5Z" fill="#2E2E2E"/>
<path d="M158 16.5C158 15.6716 157.328 15 156.5 15C155.672 15 155 15.6716 155 16.5C155 17.3284 155.672 18 156.5 18C157.328 18 158 17.3284 158 16.5Z" fill="#2E2E2E"/>
</g>
</g>
<defs>
<clipPath id="clip0_775_857">
<rect width="185" height="177" fill="white"/>
</clipPath>
</defs>
</svg>
